<svg width="159" height="605" viewBox="0 0 159 605" fill="none" xmlns="http://www.w3.org/2000/svg">
<g opacity="0.9" clip-path="url(#clip0_2_6)">
<path d="M388.612 594.037C329.102 589.604 275.039 577.616 227.781 556.872C179.723 535.779 135.15 513.918 101.357 484.381C59.0659 447.397 35.7367 396.309 33.8919 352.046C31.3196 290.422 32.0463 222.855 47.4245 161.769C48.237 158.522 49.137 155.284 50.1389 152.046C63.6217 108.321 116.6 71.2033 174.457 47.9164C218.903 30.0258 283.154 24.4655 336.115 17.8959C401.701 9.75771 469.01 13.2985 535.484 13.9594" stroke="#216DE1" stroke-width="25" stroke-miterlimit="10"/>
<path d="M396.821 559.061C348.282 559.164 290.936 539.989 249.28 521.7C206.911 503.105 177.741 481.019 147.958 454.98C110.679 422.381 86.2808 385.475 84.6512 346.455C82.389 292.138 82.4933 231.875 96.0544 178.027C96.7782 175.161 97.5748 172.304 98.4443 169.456C110.336 130.915 163.075 99.9329 214.058 79.4043C253.237 63.6363 303.838 56.9893 350.516 51.2042C408.332 44.0359 467.672 47.1508 526.248 47.7326" stroke="#216DE1" stroke-width="24" stroke-miterlimit="10"/>
</g>
<defs>
<clipPath id="clip0_2_6">
<rect width="524.563" height="603.16" fill="white" transform="translate(524.56 604.952) rotate(-179.804)"/>
</clipPath>
</defs>
</svg>
