<?xml version="1.0" encoding="UTF-8"?>
<svg id="Layer_2" data-name="Layer 2" xmlns="http://www.w3.org/2000/svg" viewBox="0 0 230.48 331.33">
  <defs>
    <style>
      .cls-1 {
        stroke-width: 3.5px;
      }

      .cls-1, .cls-2, .cls-3, .cls-4, .cls-5, .cls-6, .cls-7, .cls-8 {
        fill: none;
        stroke: #2b2b2b;
        stroke-miterlimit: 10;
      }

      .cls-2 {
        stroke-width: 3.26px;
      }

      .cls-3 {
        stroke-width: 2.05px;
      }

      .cls-4 {
        stroke-width: 2.02px;
      }

      .cls-5 {
        stroke-width: 2.26px;
      }

      .cls-6 {
        stroke-width: 2px;
      }

      .cls-7 {
        stroke-width: 2.01px;
      }

      .cls-8 {
        stroke-width: 1.99px;
      }
    </style>
  </defs>
  <path class="cls-7" d="M64.3,57.31c.3-1.33.64-2.73,1.56-3.78,1.9-2.18,5.28-1.91,8.16-1.71,6.16.41,12.39-.39,18.25-2.34.81-.27,1.88-.48,2.37.22.23.33.23.76.2,1.16-.11,1.41-.52,2.8-1.22,4.04,12.26-.4,24.41-3.81,35.08-9.85,2.23-1.26,5.05-2.63,7.16-1.18.85.58,1.37,1.52,1.86,2.42,6.3,11.58,12.76,23.81,12.68,37,1.25-4.02,4.13-7.63,8.04-9.19s8.8-.77,11.63,2.35c1.58,1.74,2.44,4.03,2.93,6.33,1.81,8.56-1.44,18-8.14,23.63-2.99,2.51-6.69,4.42-8.62,7.82-1.4,2.47-1.66,5.4-2.15,8.19-1.79,10.17-7.14,19.67-14.89,26.48-8.95,7.86-21.24,12.06-33.12,11.62-3.35-.12-6.69-.62-9.93-1.48-1.35-.36-2.76-.83-4.13-.54"/>
  <path class="cls-7" d="M89.02,169.24c1.14-3.79,2.06-7.64,2.76-11.54-.42,2.31-11.51-5.34-12.65-6.33-5.32-4.62-9.49-10.6-12.31-17.04-1.36-3.11-2.44-6.2-2.85-9.58-.39-3.18.16-11.6-3.72-13.07-.85-.32-1.8-.2-2.7-.31-2.45-.3-4.33-2.3-5.71-4.35-4.5-6.65-6.18-15.14-4.37-22.98,1.41-6.09,5.47-10.82,11.46-5.98,3.44,2.79,3.3-6.02,3.61-8.12.65-4.42,1.28-8.83,1.92-13.25"/>
  <path class="cls-6" d="M124.68,157.42c-.54,3.47,1.45,7.18,4.64,8.65.74.34,1.07.64,1.81.98.29.56-.41,1.07-.91,1.45-.33.25-.6.56-.86.88-1.68,2.08-2.67,4.78-4.86,6.33-.08.06-.2.11-.28.05s.09-.21.1-.11"/>
  <path class="cls-3" d="M88.61,168.15c-2.13.11-3,.12-2.84,2.14.13,1.59,1.14,3.39,1.97,4.69,1.77,2.8,4.39,5.01,7.34,6.33,4.82,2.16,10.36,2.12,15.45.79s9.8-3.9,14.32-6.68"/>
  <path class="cls-6" d="M85.16,169.12c-4.37.1-8.48,2.93-12.14,5.03-4.06,2.33-8.16,4.61-11.99,7.32-4.55,3.22-8.81,6.83-13.07,10.42-6.96,5.87-14.33,11.24-21.14,17.3-5.48,4.88-9.96,10.71-14.83,16.17-4.08,4.58-10.36,9.2-10.95,15.77-.32,3.59,1.25,7.04,2.78,10.3,4.05,8.62,9.85,16.23,15.71,23.67,3,3.8,6.04,7.57,8.92,11.46,1.12,1.51,3.1,3.43,3.63,5.25.68,2.32.05,5.15.74,7.61,1.29,4.61,6.61,12.19,12.19,11.74"/>
  <path class="cls-5" d="M30.26,206.48c2.18,5.34,1.8,11.53,4.91,16.45,2.52,3.98,6.95,6.49,11.2,8.84"/>
  <path class="cls-6" d="M63.13,201.95c-3.19,19.73-6.28,39.47-9.02,59.26-2.58,18.72-4.71,37.48-6.98,56.25-.17,1.42.24,2.1,1.69,2.41,13.35,2.86,27.13,5.19,40.8,5.61,8.58.26,17.56.22,26.28-.41,4.65-.33,9.29-.82,13.9-1.52,3.89-.58,9.29-.77,12.76-2.67"/>
  <path class="cls-6" d="M58.06,221.45l-15.19,12.61c-3.07,2.54-11.37,7.03-11.19,11.61.06,1.58.78,3.05,1.56,4.43,6.38,11.2,11.86,23.03,17.75,34.51"/>
  <path class="cls-8" d="M131.12,167.06c7.43,1.05,15.57,1.83,22.39,5.04,8.19,3.85,15,10.07,21.53,16.18,9.91,9.26,20.2,18.64,29.83,28.39,4.88,4.93,9.62,10,14.15,15.25,4.08,4.74,9.64,9.74,10.37,16.19.76,6.77-3.24,12.22-7.13,17.43-4.34,5.81-9.42,11.04-14.74,15.97-11.68,10.86-23.39,21.95-35.87,31.9-5.54,4.41-11.66,5.89-18.28,7.9"/>
  <path class="cls-6" d="M166.45,318.41c1.14,1.72-.19,3.54-1.33,4.89-1.66,1.96-3.34,3.95-5.5,5.35s-4.87,2.14-7.32,1.37c-2.07-.65-3.68-2.28-5.04-3.96-6.05-7.46-13.21-22.84-3.24-29.89,4.74-3.35,10.66-3.84,16.11-5.32,5.78-1.57,9.92-4.5,13.28-9.5,5.54-8.24,11.26-16.29,17.09-24.33,4.45-6.14-2.12-10.02-6.04-14.53s-7.83-8.86-11.87-13.17c-3.41-3.64-6.68-7.43-9.79-11.33-2.85-3.59-5.25-8.09-8.71-11.09"/>
  <path class="cls-6" d="M158.86,214.66c-.26,12.78-.28,25.58-.94,38.35s-2.5,24.79-.7,37.34"/>
  <path class="cls-6" d="M176.37,232.3c1.35-2.89,3.12-5.58,5.23-7.97.97-1.1,2.3-1.84,3.41-2.79,1.66-1.43,3.15-2.18,4.45-3.94,2.64-3.57,6.61-4.67,10.74-6.29"/>
  <path class="cls-6" d="M53.4,75.58c-2.07-8.41-2.54-18.54-1.5-27.13s4.24-16.33,10.49-21.66c1.55-1.32,3.27-2.47,4.54-4.06,2.97-3.72.68-9.36,3.05-13.75.83-1.53,4.34-7.06,6.29-4.33.38.53.56,1.18.82,1.78.94,2.25,2.86,3.99,5,5.17,9.28,5.1,20.92,4.81,31.16,5.64"/>
  <path class="cls-4" d="M165.71,75.89c.72-5.18,1.24-12.09.5-17.29-1-6.98-1.27-14.88-5.59-20.65-2.51-3.36-5.52-6.29-8.89-8.66-.64-.45-.84-.71-1.6-.59-1.38-.91-4.49-1.09-5.5-2.15-1.21-1.27-.44-3.88-2.15-5.28-3.79-3.09-8.29-4.97-12.89-6.18-3.91-1.03-6.4-1.79-9.98-3.82-1.98-1.12-4.2-1.63-6.29-2.49-4.1-1.67-7.02-5.66-10.95-7.32-.25,2.46.2,5.42,1.24,7.66,1.84,3.93,5.58,5.55,8.86,7.79"/>
  <path class="cls-4" d="M97.5,103.56c-1.95,1.36-3.44,3.91-2.47,6.08.95,2.12,3.65,2.74,5.97,2.76,2.2.02,4.41-.26,6.54-.83,5.27-1.4,4.1-4.6,1.42-7.89"/>
  <path class="cls-4" d="M83.93,122.3c.45,1.56,1.71,2.5,3.05,3.3,13.65,8.16,29.99,7.55,41.61-3.69"/>
  <path class="cls-1" d="M76.52,73.36c1.04-4.98,8.09-12.55,12.33-7.07"/>
  <path class="cls-2" d="M131.88,72.7c-1.02-4.01-3.19-7.45-5.94-9.43-1.03-.74-2.17-1.29-3.33-1.17s-2.33.99-2.78,2.45"/>
  <path class="cls-6" d="M80.61,98.88c.79,1.24,1.85,2.32,3.18,2.95.5.24,1.04.41,1.59.49,2.6.36,5.11-1.46,6.35-3.77,3.16-5.84,2.48-16.24-6.01-16.33-7.99-.09-8.31,11.64-5.11,16.66Z"/>
  <path class="cls-6" d="M120.09,98.36c.79,1.24,1.85,2.32,3.18,2.95.5.24,1.04.41,1.59.49,2.6.36,5.11-1.46,6.35-3.77,3.16-5.84,2.48-16.24-6.01-16.33-7.99-.09-8.31,11.64-5.11,16.66Z"/>
</svg>