<?xml version="1.0" encoding="UTF-8"?>
<svg id="Layer_1" data-name="Layer 1" xmlns="http://www.w3.org/2000/svg" viewBox="0 0 359.99 696.01">
  <defs>
    <style>
      .cls-1 {
        stroke-width: 25px;
      }

      .cls-1, .cls-2 {
        fill: none;
        stroke: #216de1;
        stroke-miterlimit: 10;
      }

      .cls-2 {
        stroke-width: 24px;
      }
    </style>
  </defs>
  <path class="cls-1" d="M102.58,12.41c40.85,4.88,77.98,18.5,110.46,42.25,33.03,24.15,63.67,49.2,86.93,83.15,29.11,42.51,45.24,101.37,46.61,152.44,1.91,71.1,1.57,149.07-8.84,219.62-.55,3.75-1.16,7.49-1.84,11.23-9.15,50.51-45.42,93.55-85.07,120.65-30.46,20.82-74.54,27.49-110.87,35.28-44.99,9.65-91.19,5.83-136.81,5.33"/>
  <path class="cls-2" d="M87.77,52.45c33.31-.31,72.71,21.59,101.34,42.53,29.12,21.29,49.19,46.66,69.69,76.59,25.66,37.47,42.49,79.96,43.7,124.98,1.68,62.67,1.75,132.21-7.43,194.4-.49,3.31-1.03,6.61-1.62,9.9-8.07,44.52-44.19,80.48-79.13,104.37-26.85,18.35-61.56,26.22-93.58,33.08-39.66,8.5-80.39,5.14-120.59,4.7"/>
</svg>